<?xml version="1.0" encoding="UTF-8" standalone="no"?>
<!DOCTYPE svg PUBLIC "-//W3C//DTD SVG 20010904//EN"
              "http://www.w3.org/TR/2001/REC-SVG-20010904/DTD/svg10.dtd">

<svg xmlns="http://www.w3.org/2000/svg"
     width="4.44444in" height="4.44444in"
     viewBox="0 0 400 400">
  <path id="Selection"
        fill="black" stroke="black" stroke-width="1"
        d="M 201.00,0.00
           C 201.00,0.00 215.41,1.02 215.41,1.02
             215.41,1.02 217.75,8.00 217.75,8.00
             217.75,8.00 221.74,26.40 221.74,26.40
             221.74,26.40 236.00,29.61 236.00,29.61
             236.00,29.61 255.82,34.08 255.82,34.08
             255.82,34.08 261.72,28.00 261.72,28.00
             261.72,28.00 272.00,13.00 272.00,13.00
             280.25,14.27 286.66,18.06 294.00,21.75
             296.74,23.13 301.01,24.65 301.50,28.10
             302.06,31.99 295.19,48.64 295.92,51.82
             296.26,53.29 297.09,54.02 298.16,54.99
             298.16,54.99 306.00,60.73 306.00,60.73
             306.00,60.73 317.00,69.59 317.00,69.59
             319.16,71.39 322.01,74.35 325.00,74.19
             330.97,73.88 343.26,61.77 348.99,64.13
             352.39,65.53 362.08,78.41 364.61,82.00
             366.54,84.75 368.11,86.67 366.36,90.00
             363.66,95.13 351.70,104.49 351.55,109.00
             351.47,111.20 354.65,116.84 355.78,119.00
             359.29,125.77 363.64,133.48 365.00,140.96
             365.00,140.96 377.00,140.96 377.00,140.96
             377.00,140.96 386.00,140.01 386.00,140.01
             387.95,139.97 391.70,139.77 393.28,140.99
             394.95,142.30 395.62,145.99 396.13,148.00
             397.30,152.64 401.31,166.58 399.43,170.61
             398.34,172.94 395.22,173.89 393.00,174.80
             387.40,177.08 380.90,179.93 375.00,181.00
             375.00,181.00 376.00,201.00 376.00,201.00
             376.00,201.00 375.00,219.00 375.00,219.00
             380.90,220.07 387.40,222.92 393.00,225.20
             395.22,226.11 398.34,227.06 399.43,229.39
             401.29,233.36 397.51,246.48 396.37,251.00
             395.90,252.88 395.06,257.03 393.86,258.43
             392.56,259.94 390.82,259.91 388.98,259.98
             383.28,260.21 381.80,259.42 377.00,259.04
             377.00,259.04 365.00,259.04 365.00,259.04
             363.65,266.48 359.30,274.27 355.78,281.00
             354.61,283.22 351.30,288.74 351.43,291.00
             351.68,295.38 363.67,304.89 366.36,310.00
             369.22,315.43 357.95,326.87 354.41,331.00
             352.97,332.66 351.07,335.03 348.99,335.87
             346.04,337.06 343.50,335.21 341.00,333.86
             338.36,332.43 326.99,325.92 325.00,325.81
             322.02,325.64 319.16,328.62 317.00,330.41
             317.00,330.41 298.16,345.01 298.16,345.01
             297.09,345.98 296.26,346.71 295.92,348.18
             295.19,351.36 302.06,368.01 301.50,371.90
             301.01,375.35 296.74,376.87 294.00,378.25
             286.98,381.78 279.85,385.77 272.00,387.00
             272.00,387.00 261.72,372.00 261.72,372.00
             261.72,372.00 255.82,365.92 255.82,365.92
             255.82,365.92 236.00,370.34 236.00,370.34
             236.00,370.34 221.74,373.60 221.74,373.60
             221.74,373.60 217.75,392.00 217.75,392.00
             217.75,392.00 215.41,398.98 215.41,398.98
             215.41,398.98 201.00,400.00 201.00,400.00
             201.00,400.00 201.00,350.00 201.00,350.00
             221.33,350.00 241.26,345.05 260.00,337.40
             277.06,330.43 293.03,318.96 306.00,306.00
             333.54,278.47 348.37,247.90 351.09,209.00
             351.40,204.61 352.16,203.05 351.96,198.00
             348.82,117.00 282.79,50.01 201.00,50.00
             201.00,50.00 201.00,0.00 201.00,0.00 Z" />
</svg>
