<?xml version="1.0" encoding="UTF-8" standalone="no"?>
<!DOCTYPE svg PUBLIC "-//W3C//DTD SVG 20010904//EN"
              "http://www.w3.org/TR/2001/REC-SVG-20010904/DTD/svg10.dtd">

<svg xmlns="http://www.w3.org/2000/svg"
     width="27.7778in" height="27.7778in"
     viewBox="0 0 2000 2000">
  <path id="Selection"
        fill="black" stroke="black" stroke-width="1"
        d="M 921.00,2.00
           C 921.00,2.00 947.00,1.00 947.00,1.00
             947.00,1.00 963.00,0.00 963.00,0.00
             963.00,0.00 990.00,0.00 990.00,0.00
             990.00,0.00 990.00,247.00 990.00,247.00
             990.00,247.00 976.00,247.00 976.00,247.00
             976.00,247.00 956.00,248.00 956.00,248.00
             956.00,248.00 946.00,248.91 946.00,248.91
             946.00,248.91 898.00,253.72 898.00,253.72
             833.00,262.27 772.83,278.67 712.00,303.00
             643.36,330.46 574.14,371.59 517.00,418.42
             517.00,418.42 480.00,450.83 480.00,450.83
             424.02,501.46 373.56,566.43 336.15,632.00
             293.70,706.41 263.77,789.47 249.59,874.00
             245.15,900.46 240.31,934.42 240.00,961.00
             240.00,961.00 239.00,976.00 239.00,976.00
             239.00,976.00 239.00,1024.00 239.00,1024.00
             239.00,1024.00 240.00,1044.00 240.00,1044.00
             240.00,1044.00 240.91,1054.00 240.91,1054.00
             240.91,1054.00 245.73,1101.00 245.73,1101.00
             252.53,1148.15 261.15,1185.62 275.66,1231.00
             287.46,1267.92 302.48,1304.54 320.26,1339.00
             353.43,1403.28 396.02,1463.71 446.04,1516.00
             514.88,1587.97 596.27,1645.39 687.00,1686.30
             753.90,1716.47 825.25,1736.71 898.00,1746.28
             898.00,1746.28 946.00,1751.09 946.00,1751.09
             946.00,1751.09 956.00,1752.00 956.00,1752.00
             956.00,1752.00 977.00,1753.00 977.00,1753.00
             977.00,1753.00 990.00,1753.00 990.00,1753.00
             990.00,1753.00 990.00,2000.00 990.00,2000.00
             990.00,2000.00 963.00,2000.00 963.00,2000.00
             963.00,2000.00 948.00,1999.00 948.00,1999.00
             948.00,1999.00 921.00,1998.00 921.00,1998.00
             921.00,1998.00 917.27,1974.00 917.27,1974.00
             917.27,1974.00 904.92,1898.00 904.92,1898.00
             904.92,1898.00 899.00,1860.00 899.00,1860.00
             899.00,1860.00 849.00,1853.41 849.00,1853.41
             815.67,1847.82 782.44,1840.05 750.00,1830.58
             750.00,1830.58 713.00,1819.00 713.00,1819.00
             713.00,1819.00 688.71,1855.00 688.71,1855.00
             688.71,1855.00 660.58,1895.00 660.58,1895.00
             660.58,1895.00 634.00,1933.00 634.00,1933.00
             604.41,1922.74 572.06,1907.78 544.00,1893.75
             544.00,1893.75 528.00,1885.25 528.00,1885.25
             528.00,1885.25 502.00,1871.28 502.00,1871.28
             499.68,1869.96 493.57,1867.05 492.66,1864.61
             491.78,1862.25 493.89,1856.45 494.66,1854.00
             494.66,1854.00 501.58,1831.00 501.58,1831.00
             501.58,1831.00 521.02,1766.00 521.02,1766.00
             521.02,1766.00 527.34,1745.00 527.34,1745.00
             527.99,1742.92 530.26,1735.88 530.17,1734.09
             529.99,1730.32 524.82,1728.13 522.00,1726.31
             522.00,1726.31 497.00,1709.58 497.00,1709.58
             467.18,1688.48 439.45,1666.36 412.00,1642.28
             412.00,1642.28 391.00,1623.00 391.00,1623.00
             388.81,1620.83 385.27,1616.57 382.00,1616.59
             379.97,1616.60 374.08,1620.16 372.00,1621.30
             372.00,1621.30 349.00,1634.14 349.00,1634.14
             349.00,1634.14 292.00,1665.86 292.00,1665.86
             284.92,1669.81 266.37,1680.99 260.00,1683.00
             255.93,1677.62 253.41,1675.69 249.17,1671.00
             249.17,1671.00 233.28,1653.00 233.28,1653.00
             233.28,1653.00 184.87,1593.00 184.87,1593.00
             184.87,1593.00 168.34,1570.00 168.34,1570.00
             166.47,1567.27 163.04,1563.46 164.13,1560.00
             164.97,1557.30 169.95,1552.14 172.01,1550.00
             172.01,1550.00 185.96,1535.00 185.96,1535.00
             185.96,1535.00 214.17,1504.00 214.17,1504.00
             214.17,1504.00 233.72,1483.00 233.72,1483.00
             233.72,1483.00 250.04,1465.00 250.04,1465.00
             251.70,1463.26 255.47,1460.28 255.36,1457.72
             255.25,1455.53 248.58,1445.48 247.06,1443.00
             247.06,1443.00 229.31,1412.00 229.31,1412.00
             214.37,1384.45 200.48,1356.11 188.80,1327.00
             185.10,1317.79 176.36,1297.80 175.00,1289.00
             175.00,1289.00 164.00,1290.00 164.00,1290.00
             164.00,1290.00 155.00,1290.00 155.00,1290.00
             155.00,1290.00 132.00,1291.91 132.00,1291.91
             132.00,1291.91 85.00,1295.04 85.00,1295.04
             85.00,1295.04 76.00,1295.04 76.00,1295.04
             76.00,1295.04 46.00,1297.23 46.00,1297.23
             43.30,1297.16 37.59,1298.46 35.43,1297.23
             32.98,1296.25 31.83,1290.55 31.00,1288.00
             31.00,1288.00 23.58,1262.00 23.58,1262.00
             16.35,1236.00 10.37,1209.55 5.58,1183.00
             3.60,1172.07 0.03,1155.67 0.00,1145.00
             0.00,1145.00 35.00,1131.40 35.00,1131.40
             35.00,1131.40 98.00,1106.20 98.00,1106.20
             98.00,1106.20 130.00,1094.00 130.00,1094.00
             130.00,1094.00 126.91,1063.00 126.91,1063.00
             126.91,1063.00 124.89,1034.00 124.89,1034.00
             124.89,1034.00 124.89,1000.00 124.89,1000.00
             124.89,1000.00 124.89,990.00 124.89,990.00
             124.89,990.00 124.89,966.00 124.89,966.00
             124.89,966.00 126.91,937.00 126.91,937.00
             126.91,937.00 130.00,906.00 130.00,906.00
             130.00,906.00 98.00,893.80 98.00,893.80
             98.00,893.80 35.00,868.60 35.00,868.60
             35.00,868.60 0.00,855.00 0.00,855.00
             0.03,844.33 3.60,827.93 5.58,817.00
             10.37,790.45 16.35,764.00 23.58,738.00
             23.58,738.00 31.00,712.00 31.00,712.00
             31.83,709.45 32.98,703.75 35.43,702.77
             37.59,701.54 43.30,702.84 46.00,702.77
             46.00,702.77 76.00,704.96 76.00,704.96
             76.00,704.96 85.00,704.96 85.00,704.96
             85.00,704.96 132.00,708.09 132.00,708.09
             132.00,708.09 155.00,710.00 155.00,710.00
             155.00,710.00 164.00,710.00 164.00,710.00
             164.00,710.00 175.00,711.00 175.00,711.00
             176.36,702.20 185.10,682.21 188.80,673.00
             200.48,643.89 214.37,615.55 229.31,588.00
             229.31,588.00 247.68,556.00 247.68,556.00
             249.03,553.84 255.33,544.26 255.41,542.42
             255.53,539.90 251.67,536.72 250.04,535.00
             250.04,535.00 234.42,518.00 234.42,518.00
             234.42,518.00 214.17,496.00 214.17,496.00
             214.17,496.00 185.91,465.00 185.91,465.00
             185.91,465.00 172.01,450.00 172.01,450.00
             169.95,447.86 164.97,442.70 164.13,440.00
             163.04,436.54 166.47,432.73 168.34,430.00
             168.34,430.00 184.88,407.00 184.88,407.00
             200.11,386.34 216.45,366.38 233.28,347.00
             233.28,347.00 260.00,317.00 260.00,317.00
             260.00,317.00 292.00,334.14 292.00,334.14
             292.00,334.14 349.00,365.86 349.00,365.86
             349.00,365.86 372.00,378.70 372.00,378.70
             374.08,379.84 379.97,383.40 382.00,383.41
             385.27,383.43 388.81,379.17 391.00,377.00
             391.00,377.00 412.00,357.72 412.00,357.72
             439.32,333.76 467.33,311.42 497.00,290.42
             497.00,290.42 522.00,273.69 522.00,273.69
             524.82,271.87 529.99,269.68 530.17,265.91
             530.26,264.12 527.99,257.08 527.34,255.00
             527.34,255.00 521.02,234.00 521.02,234.00
             521.02,234.00 501.58,169.00 501.58,169.00
             501.58,169.00 494.66,146.00 494.66,146.00
             493.89,143.55 491.78,137.75 492.66,135.39
             493.57,132.95 499.68,130.04 502.00,128.72
             502.00,128.72 528.00,114.75 528.00,114.75
             528.00,114.75 544.00,106.25 544.00,106.25
             572.03,92.23 604.44,77.25 634.00,67.00
             634.00,67.00 660.58,105.00 660.58,105.00
             660.58,105.00 688.71,145.00 688.71,145.00
             688.71,145.00 713.00,181.00 713.00,181.00
             713.00,181.00 750.00,169.42 750.00,169.42
             782.12,160.04 816.00,152.13 849.00,146.59
             849.00,146.59 899.00,140.00 899.00,140.00
             899.00,140.00 904.92,102.00 904.92,102.00
             904.92,102.00 917.27,26.00 917.27,26.00
             917.27,26.00 921.00,2.00 921.00,2.00 Z" />
</svg>
